<?xml version="1.0" encoding="UTF-8"?>
<!-- Created with Inkscape (http://www.inkscape.org/) -->
<svg width="1536" height="1536" enable-background="new" version="1.1" viewBox="0 0 406.4 406.4" xmlns="http://www.w3.org/2000/svg" xmlns:cc="http://creativecommons.org/ns#" xmlns:dc="http://purl.org/dc/elements/1.1/" xmlns:rdf="http://www.w3.org/1999/02/22-rdf-syntax-ns#">
  <title>AD Tools Icon</title>
  <metadata>
    <rdf:RDF>
      <cc:Work rdf:about="">
        <dc:format>image/svg+xml</dc:format>
        <dc:type rdf:resource="http://purl.org/dc/dcmitype/StillImage"/>
        <dc:title>AD Tools Icon</dc:title>
      </cc:Work>
    </rdf:RDF>
  </metadata>
  <path d="m359.72 76.054h-125.22v46.957h-62.608v-46.957h-125.22c-17.289 4.2e-5 -31.305 14.016-31.305 31.305v219.13c8e-6 17.289 14.015 31.305 31.305 31.305h313.05c17.289 4e-5 31.305-14.015 31.305-31.305v-219.13c0-17.289-14.016-31.305-31.305-31.305m-219.13 78.263c17.289 0 31.305 14.015 31.305 31.305 1e-5 17.289-14.016 31.305-31.305 31.305-17.289-3e-5 -31.305-14.016-31.305-31.305 2e-5 -17.289 14.016-31.304 31.305-31.305m62.608 125.22h-125.22v-15.652c0-20.817 41.792-31.305 62.608-31.305 20.817 0 62.608 10.487 62.608 31.305v15.652m15.652-172.18h-31.305v-62.608h31.305z" stroke-width="15.652"/>
  <g fill-rule="evenodd">
    <g transform="matrix(3.6974 0 0 3.6974 -31.579 -18.141)">
      <path transform="scale(.26458)" d="m112.52 294.34c0-8.2784 0.2108-10.099 1.4825-12.805 5.8064-12.353 32.308-23.515 58.183-24.507 27.716-1.0622 58.22 10.173 65.816 24.241 1.0109 1.872 1.3306 4.4829 1.536 12.543l0.25936 10.179h-127.28z" fill="#fff" fill-opacity=".97487"/>
      <path transform="scale(.26458)" d="m166.44 238.46c-8.6767-3.0972-15.287-9.0249-19.144-17.167-2.1487-4.5358-2.275-5.2605-2.275-13.054 0-8.0988 0.0496-8.3518 2.6851-13.684 3.2512-6.5784 8.7206-11.913 15.529-15.146 4.3263-2.0542 5.1785-2.2031 12.5-2.1842 6.4197 0.0166 8.5759 0.3097 11.786 1.602 7.9068 3.1835 14.842 10.119 18.018 18.02 2.2651 5.6343 2.2651 17.223 0 22.857-3.1891 7.9325-10.187 14.913-18.018 17.974-5.5081 2.1528-16.134 2.5465-21.081 0.7809z" fill="#fff" fill-opacity=".94118"/>
      <path transform="scale(.26458)" d="m73.264 383.21c-11.314-2.2178-21.729-12.872-24.236-24.791-1.0574-5.0273-1.1319-230.29-0.07808-235.94 1.497-8.0214 7.2948-16.58 14.174-20.922 1.5692-0.99058 4.7968-2.4559 7.1725-3.2562 4.2228-1.4226 5.8053-1.4551 70.771-1.4551h66.451v47.857h65v-47.885l135.36 0.38534 5.3571 2.5751c6.0867 2.9258 11.57 7.9768 14.497 13.354 4.2321 7.7757 4.0526 2.166 4.0642 127.07 8e-3 82.641-0.21448 115.48-0.79951 118.21-1.8192 8.5003-6.9199 15.816-14.397 20.649-8.1791 5.2864 4.8 4.9313-177.08 4.844-89.69-0.0431-164.51-0.35894-166.26-0.70199zm166.98-89.041c-0.30502-12.45-0.92999-14.125-7.5563-20.26-7.2433-6.706-19.836-12.122-36.602-15.743-10.82-2.3365-29.237-2.3467-40.122-0.0223-23.03 4.9181-38.816 13.717-43.129 24.038-0.73679 1.7634-1.0349 5.3637-1.0349 12.5v10.023h128.7zm-54.962-55.096c5.9558-1.8536 9.8273-4.2698 14.127-8.8166 4.2088-4.4501 6.2387-8.0892 7.7508-13.895 1.9549-7.5053 0.98038-16.257-2.5894-23.254-2.0941-4.1048-8.5066-10.658-12.594-12.87-9.3892-5.0812-20.394-5.4816-29.664-1.0793-6.9606 3.3056-12.051 8.4181-15.433 15.499-2.502 5.2389-2.5808 5.6548-2.5808 13.618s0.0788 8.3793 2.5808 13.618c4.1635 8.7181 12.498 15.706 21.172 17.75 4.7504 1.1199 12.635 0.85836 17.229-0.57145z" fill="#0397d6" stroke="#000" stroke-linejoin="bevel" stroke-width="12.982"/>
    </g>
    <path transform="scale(.26458)" d="m492.77 794.69c-39.15-18.274-61.079-52.242-60.922-94.37 0.30143-81.078 92.613-127.77 158.4-80.118 25.977 18.817 37.519 39.758 39.846 72.293 2.4222 33.853-2.6472 50.795-21.945 73.34-28.808 33.656-78.477 46.078-115.38 28.855z" stroke="#000" stroke-linejoin="bevel" stroke-width="48.814"/>
    <path transform="scale(.26458)" d="m311.24 1026.1c1.3983-6.9915 2.5424-20.72 2.5424-30.508 0-15.426 2.2329-20.03 16.763-34.56 19.559-19.559 60.335-39.2 109.34-52.665 48.869-13.429 132.85-13.521 183.05-0.20089 45.576 12.093 88.245 32.881 109.17 53.189 13.901 13.491 16.939 19.162 16.976 31.69 0.0244 8.3924 1.1794 22.123 2.5661 30.513l2.5214 15.254h-445.47z" stroke="#000" stroke-linejoin="bevel" stroke-width="48.814"/>
    <path d="m368.33 260.18-58.89-58.89c5.8244-14.884 2.5888-32.357-9.707-44.653-12.943-12.943-32.357-15.532-47.889-8.4129l27.827 27.827-19.414 19.414-28.475-27.827c-7.7658 15.532-4.5298 34.946 8.413 47.889 12.296 12.296 29.769 15.532 44.653 9.7073l58.89 58.89c2.5885 2.5885 6.4714 2.5885 9.0599 0l14.884-14.884c3.236-2.5888 3.236-7.1188 0.64816-9.0602z" stroke-width="6.4715"/>
  </g>
</svg>
